<svg width="50" height="50" viewBox="0 0 50 50" fill="none" xmlns="http://www.w3.org/2000/svg">
  <circle cx="25" cy="16.6667" r="5.75" stroke="#666666" stroke-linecap="round"/>
  <path d="M28.2142 13.2708C28.6798 12.4644 29.3741 11.8141 30.2093 11.4022C31.0445 10.9904 31.983 10.8354 32.9063 10.957C33.8295 11.0785 34.696 11.4711 35.3961 12.0851C36.0963 12.6991 36.5986 13.5069 36.8396 14.4064C37.0806 15.3059 37.0495 16.2566 36.7502 17.1385C36.4508 18.0203 35.8967 18.7935 35.158 19.3604C34.4192 19.9273 33.5289 20.2624 32.5996 20.3233C31.6704 20.3842 30.744 20.1682 29.9375 19.7025" stroke="#666666"/>
  <path d="M21.7858 13.2708C21.3202 12.4644 20.6259 11.8141 19.7907 11.4022C18.9555 10.9904 18.017 10.8354 17.0937 10.957C16.1705 11.0785 15.304 11.4711 14.6039 12.0851C13.9037 12.6991 13.4014 13.5069 13.1604 14.4064C12.9194 15.3059 12.9505 16.2566 13.2498 17.1385C13.5492 18.0203 14.1033 18.7935 14.842 19.3604C15.5808 19.9273 16.4711 20.2624 17.4004 20.3233C18.3296 20.3842 19.256 20.1682 20.0625 19.7025" stroke="#666666"/>
  <path d="M25 26.0417C34.4771 26.0417 36.1157 34.5927 36.3991 37.5498C36.4517 38.0995 36.0106 38.5417 35.4583 38.5417H14.5416C13.9893 38.5417 13.5482 38.0995 13.6009 37.5498C13.8842 34.5927 15.5228 26.0417 25 26.0417Z" stroke="#666666" stroke-linecap="round"/>
  <path d="M40.4575 33.2877L40.9489 33.1954L40.4575 33.2877ZM27.2648 26.2206L26.8955 25.8835L26.2751 26.563L27.1828 26.7139L27.2648 26.2206ZM35.7944 34.375L35.3141 34.514L35.4185 34.875H35.7944V34.375ZM32.2917 24.4583C34.9769 24.4583 36.7551 25.9779 37.9492 27.8871C39.1505 29.8079 39.72 32.0687 39.9661 33.3799L40.9489 33.1954C40.694 31.8374 40.0958 29.4335 38.797 27.3569C37.4911 25.2688 35.4369 23.4583 32.2917 23.4583V24.4583ZM27.634 26.5578C28.7606 25.3239 30.2613 24.4583 32.2917 24.4583V23.4583C29.9334 23.4583 28.1774 24.4795 26.8955 25.8835L27.634 26.5578ZM27.1828 26.7139C32.2731 27.5598 34.4082 31.3828 35.3141 34.514L36.2747 34.236C35.3198 30.9353 32.9865 26.6646 27.3467 25.7274L27.1828 26.7139ZM39.52 33.875H35.7944V34.875H39.52V33.875ZM39.9661 33.3799C40.0126 33.6275 39.8256 33.875 39.52 33.875V34.875C40.3975 34.875 41.1208 34.1107 40.9489 33.1954L39.9661 33.3799Z" fill="#666666"/>
  <path d="M22.7353 26.2206L22.8173 26.7139L23.725 26.563L23.1045 25.8835L22.7353 26.2206ZM9.54249 33.2877L9.05107 33.1954L9.54249 33.2877ZM14.2057 34.375V34.875H14.5815L14.686 34.514L14.2057 34.375ZM17.7084 24.4583C19.7388 24.4583 21.2395 25.3239 22.366 26.5578L23.1045 25.8835C21.8226 24.4795 20.0667 23.4583 17.7084 23.4583V24.4583ZM10.0339 33.3799C10.2801 32.0687 10.8496 29.8079 12.0509 27.8871C13.245 25.9779 15.0232 24.4583 17.7084 24.4583V23.4583C14.5632 23.4583 12.509 25.2688 11.203 27.3569C9.90424 29.4335 9.30601 31.8373 9.05107 33.1954L10.0339 33.3799ZM10.4801 33.875C10.1744 33.875 9.98743 33.6275 10.0339 33.3799L9.05107 33.1954C8.87925 34.1107 9.60247 34.875 10.4801 34.875V33.875ZM14.2057 33.875H10.4801V34.875H14.2057V33.875ZM14.686 34.514C15.5918 31.3828 17.7269 27.5598 22.8173 26.7139L22.6533 25.7274C17.0136 26.6646 14.6803 30.9353 13.7254 34.236L14.686 34.514Z" fill="#666666"/>
</svg>
