<svg width="50" height="50" viewBox="0 0 50 50" fill="none" xmlns="http://www.w3.org/2000/svg">
  <path d="M8.33333 31.75C8.9069 31.75 9.31015 31.2971 9.57469 30.8495C9.85903 30.3685 10.0977 29.7057 10.2915 28.9305C10.6811 27.3724 10.9167 25.2464 10.9167 22.9167C10.9167 20.5869 10.6811 18.4609 10.2915 16.9028C10.0977 16.1276 9.85903 15.4648 9.57469 14.9838C9.31015 14.5362 8.9069 14.0833 8.33333 14.0833C7.75977 14.0833 7.35652 14.5362 7.09197 14.9838C6.80764 15.4648 6.56892 16.1276 6.37512 16.9028C5.9856 18.4609 5.75 20.5869 5.75 22.9167C5.75 25.2464 5.9856 27.3724 6.37512 28.9305C6.56892 29.7057 6.80764 30.3685 7.09197 30.8495C7.35652 31.2971 7.75977 31.75 8.33333 31.75Z" stroke="#666666"/>
  <path d="M41.6667 31.75C42.2231 31.75 42.6234 31.3191 42.892 30.874C43.179 30.3986 43.4239 29.7344 43.6249 28.9305C44.0284 27.3164 44.25 25.1537 44.25 22.9167C44.25 20.6796 44.0284 18.5169 43.6249 16.9028C43.4239 16.099 43.179 15.4347 42.892 14.9593C42.6234 14.5142 42.2231 14.0833 41.6667 14.0833" stroke="#666666" stroke-linecap="round"/>
  <path d="M41.6667 13.5417C41.6667 13.5417 34.375 15.625 25 15.625C15.625 15.625 8.33337 13.5417 8.33337 13.5417" stroke="#666666" stroke-linecap="round"/>
  <path d="M8.33329 32.2917C8.33329 32.2917 13.5508 30.801 20.8333 30.3415M41.6666 32.2917C41.6666 32.2917 36.4491 30.801 29.1666 30.3415" stroke="#666666" stroke-linecap="round"/>
  <path d="M21.875 15.625V22.9167M28.125 15.625V22.9167" stroke="#666666" stroke-linecap="round"/>
  <circle cx="25" cy="27.0833" r="4.66667" stroke="#666666"/>
  <path d="M20.8333 30.2083L15.625 34.375L18.75 35.4167L20.8333 38.5417L25 32.2917L29.1667 38.5417L31.25 35.4167L34.375 34.375L29.1667 30.2083" stroke="#666666" stroke-linecap="round" stroke-linejoin="round"/>
</svg>
