<svg width="50" height="50" viewBox="0 0 50 50" fill="none" xmlns="http://www.w3.org/2000/svg">
  <path d="M4.16663 25L3.77619 24.6876L3.52631 25L3.77619 25.3123L4.16663 25ZM22.9166 25.5C23.1928 25.5 23.4166 25.2761 23.4166 25C23.4166 24.7239 23.1928 24.5 22.9166 24.5V25.5ZM12.1095 14.271L3.77619 24.6876L4.55706 25.3123L12.8904 14.8957L12.1095 14.271ZM3.77619 25.3123L12.1095 35.729L12.8904 35.1043L4.55706 24.6876L3.77619 25.3123ZM4.16663 25.5H22.9166V24.5H4.16663V25.5Z" fill="#666666"/>
  <path d="M20.8334 16.9415V11.7218C20.8334 10.1035 20.8334 9.29433 21.3073 8.73484C21.7813 8.17535 22.5795 8.04233 24.1758 7.77627L38.847 5.33107C42.0901 4.79055 43.7116 4.5203 44.7725 5.41899C45.8334 6.31769 45.8334 7.9616 45.8334 11.2494V38.7506C45.8334 42.0384 45.8334 43.6823 44.7725 44.581C43.7116 45.4797 42.0901 45.2095 38.847 44.6689L24.1758 42.2237C22.5795 41.9577 21.7813 41.8247 21.3073 41.2652C20.8334 40.7057 20.8334 39.8965 20.8334 38.2782V33.4708" stroke="#666666"/>
</svg>
